<svg xmlns="http://www.w3.org/2000/svg" viewBox="0 0 1200 630" role="img" aria-label="Apocapalette preview">
  <defs>
    <linearGradient id="bg" x1="0%" y1="0%" x2="100%" y2="100%">
      <stop offset="0%" stop-color="#0b1021"/>
      <stop offset="40%" stop-color="#1f1d47"/>
      <stop offset="100%" stop-color="#250d34"/>
    </linearGradient>
    <linearGradient id="flare" x1="0%" y1="0%" x2="100%" y2="100%">
      <stop offset="0%" stop-color="#ff6b6b" stop-opacity="0.9"/>
      <stop offset="50%" stop-color="#f7b500" stop-opacity="0.85"/>
      <stop offset="100%" stop-color="#7c3aed" stop-opacity="0.9"/>
    </linearGradient>
  </defs>
  <rect width="1200" height="630" fill="url(#bg)"/>
  <circle cx="240" cy="190" r="180" fill="url(#flare)" opacity="0.18"/>
  <circle cx="980" cy="120" r="140" fill="#f7b500" opacity="0.08"/>
  <circle cx="960" cy="480" r="220" fill="#7c3aed" opacity="0.08"/>
  <rect x="80" y="140" width="1040" height="360" rx="28" fill="#0f162e" opacity="0.78" stroke="#8b5cf6" stroke-opacity="0.35"/>
  <text x="120" y="250" font-family="Inter, 'Segoe UI', system-ui, -apple-system, sans-serif" font-size="70" font-weight="800" fill="#f8fafc">Apocapalette</text>
  <text x="120" y="320" font-family="Inter, 'Segoe UI', system-ui, -apple-system, sans-serif" font-size="34" font-weight="700" fill="#cbd5f5">Chaos-tuned palette & token generator</text>
  <text x="120" y="380" font-family="Inter, 'Segoe UI', system-ui, -apple-system, sans-serif" font-size="22" font-weight="600" fill="#c084fc">Print foils • Exports • Contrast guards • Apocalypse mode</text>
  <g transform="translate(120 420)">
    <rect x="0" y="0" width="140" height="80" rx="14" fill="#fef08a"/>
    <rect x="150" y="0" width="140" height="80" rx="14" fill="#f97316"/>
    <rect x="300" y="0" width="140" height="80" rx="14" fill="#ef4444"/>
    <rect x="450" y="0" width="140" height="80" rx="14" fill="#22c55e"/>
    <rect x="600" y="0" width="140" height="80" rx="14" fill="#2563eb"/>
    <rect x="750" y="0" width="140" height="80" rx="14" fill="#a855f7"/>
  </g>
</svg>
