<?xml version="1.0" encoding="UTF-8"?>
<svg width="1500" height="420" viewBox="0 0 1500 420" xmlns="http://www.w3.org/2000/svg">
  <rect width="1500" height="420" rx="32" fill="#f8fafc" />
  <text x="60" y="60" fill="#0f172a" font-family="Inter, system-ui" font-size="22" font-weight="800">Cobalt Chapel • Swatch Strip</text>
  <g>
      <rect x="40" y="80" width="140" height="240" rx="22" fill="#2447ff" />
      <text x="110" y="340" fill="#0f172a" font-family="Inter, system-ui" font-size="14" font-weight="700" text-anchor="middle">#2447FF</text>
    </g>
<g>
      <rect x="210" y="80" width="140" height="240" rx="22" fill="#2d9fb3" />
      <text x="280" y="340" fill="#0f172a" font-family="Inter, system-ui" font-size="14" font-weight="700" text-anchor="middle">#2D9FB3</text>
    </g>
<g>
      <rect x="380" y="80" width="140" height="240" rx="22" fill="#d4a84f" />
      <text x="450" y="340" fill="#0f172a" font-family="Inter, system-ui" font-size="14" font-weight="700" text-anchor="middle">#D4A84F</text>
    </g>
<g>
      <rect x="550" y="80" width="140" height="240" rx="22" fill="#2447ff" />
      <text x="620" y="340" fill="#0f172a" font-family="Inter, system-ui" font-size="14" font-weight="700" text-anchor="middle">#2447FF</text>
    </g>
<g>
      <rect x="720" y="80" width="140" height="240" rx="22" fill="#c5c6ce" />
      <text x="790" y="340" fill="#0f172a" font-family="Inter, system-ui" font-size="14" font-weight="700" text-anchor="middle">#C5C6CE</text>
    </g>
<g>
      <rect x="890" y="80" width="140" height="240" rx="22" fill="#818198" />
      <text x="960" y="340" fill="#0f172a" font-family="Inter, system-ui" font-size="14" font-weight="700" text-anchor="middle">#818198</text>
    </g>
<g>
      <rect x="1060" y="80" width="140" height="240" rx="22" fill="#454658" />
      <text x="1130" y="340" fill="#0f172a" font-family="Inter, system-ui" font-size="14" font-weight="700" text-anchor="middle">#454658</text>
    </g>
<g>
      <rect x="1230" y="80" width="140" height="240" rx="22" fill="#1a1b23" />
      <text x="1300" y="340" fill="#0f172a" font-family="Inter, system-ui" font-size="14" font-weight="700" text-anchor="middle">#1A1B23</text>
    </g>
</svg>