<?xml version="1.0" encoding="UTF-8"?>
<svg width="1500" height="420" viewBox="0 0 1500 420" xmlns="http://www.w3.org/2000/svg">
  <rect width="1500" height="420" rx="32" fill="#f8fafc" />
  <text x="60" y="60" fill="#0f172a" font-family="Inter, system-ui" font-size="22" font-weight="800">Beef Ritual • Swatch Strip</text>
  <g>
      <rect x="40" y="80" width="140" height="240" rx="22" fill="#8b2f24" />
      <text x="110" y="340" fill="#0f172a" font-family="Inter, system-ui" font-size="14" font-weight="700" text-anchor="middle">#8B2F24</text>
    </g>
<g>
      <rect x="210" y="80" width="140" height="240" rx="22" fill="#80f2ff" />
      <text x="280" y="340" fill="#0f172a" font-family="Inter, system-ui" font-size="14" font-weight="700" text-anchor="middle">#80F2FF</text>
    </g>
<g>
      <rect x="380" y="80" width="140" height="240" rx="22" fill="#8ff4ff" />
      <text x="450" y="340" fill="#0f172a" font-family="Inter, system-ui" font-size="14" font-weight="700" text-anchor="middle">#8FF4FF</text>
    </g>
<g>
      <rect x="550" y="80" width="140" height="240" rx="22" fill="#8b2f24" />
      <text x="620" y="340" fill="#0f172a" font-family="Inter, system-ui" font-size="14" font-weight="700" text-anchor="middle">#8B2F24</text>
    </g>
<g>
      <rect x="720" y="80" width="140" height="240" rx="22" fill="#acaa9b" />
      <text x="790" y="340" fill="#0f172a" font-family="Inter, system-ui" font-size="14" font-weight="700" text-anchor="middle">#ACAA9B</text>
    </g>
<g>
      <rect x="890" y="80" width="140" height="240" rx="22" fill="#72705a" />
      <text x="960" y="340" fill="#0f172a" font-family="Inter, system-ui" font-size="14" font-weight="700" text-anchor="middle">#72705A</text>
    </g>
<g>
      <rect x="1060" y="80" width="140" height="240" rx="22" fill="#343328" />
      <text x="1130" y="340" fill="#0f172a" font-family="Inter, system-ui" font-size="14" font-weight="700" text-anchor="middle">#343328</text>
    </g>
<g>
      <rect x="1230" y="80" width="140" height="240" rx="22" fill="#12110d" />
      <text x="1300" y="340" fill="#0f172a" font-family="Inter, system-ui" font-size="14" font-weight="700" text-anchor="middle">#12110D</text>
    </g>
</svg>